{"title":"True Grit-AC3-XviD-BRRip 2010 TBS","uid":6419161,"size":1674356478,"categoryP":"video","categoryS":"movies","magnet":"?xt=urn:btih:4352a4db86ef3cac4bb8a9731a0f4ed465d8a295&amp;dn=True+Grit-AC3-XviD-BRRip+2010+TBS&amp;tr=udp%3A%2F%2Ftracker.openbittorrent.com%3A80&amp;tr=udp%3A%2F%2Fopen.demonii.com%3A1337&amp;tr=udp%3A%2F%2Ftracker.coppersurfer.tk%3A6969&amp;tr=udp%3A%2F%2Fexodus.desync.com%3A6969","seeders":0,"leechers":1,"uploader":"FatFreddy30","files":-1,"time":1306256283,"description":"A tough U.S. Marshal helps a stubborn young woman track down her father's murderer...\n &lt;a href=&quot;\nhttp://www.imdb.com/title/tt1403865/&quot; rel=&quot;nofollow&quot; target=&quot;_NEW&quot;&gt;\nhttp://www.imdb.com/title/tt1403865/&lt;/a&gt;\n\nSubs: Dutch, English.\n\n\nNadat ze ziet hoe haar vader vermoord wordt door Tom Chaney besluit de 14-jarige Mattie Ross deze moordenaar te vangen. Ze huurt de taaiste U.S. marshall, J. &quot;Rooster&quot; Cogburn, om haar te helpen. Mattie staat erop dat ze meereist met Cogburn, wiens drinkgedrag, luiigheid en algemeen veroordelend karakter haar vertrouwen in hem niet vergroot. Tegen zijn wil reist ze met hem mee door de Indiaanse streken om Chany te zoeken. Ze worden bijgestaan door Texas Ranger LaBoeuf, die Chaney wil hebben voor andere doeleinden. Dit onwaarschijnlijk trio staat vele gevaren en verrassingen te wachten op hun reis...\n &lt;a href=&quot;\nhttp://www.moviemeter.nl/film/68966&quot; rel=&quot;nofollow&quot; target=&quot;_NEW&quot;&gt;\nhttp://www.moviemeter.nl/film/68966&lt;/a&gt;\n\nSubs: Engels, Nederlands.\n\nGeneral\nComplete name                    : True Grit-AC3-XviD-BRRip 2010.avi\nFormat                           : AVI\nFormat/Info                      : Audio Video Interleave\nFile size                        : 1.56 GiB\nDuration                         : 1h 50mn\nOverall bit rate                 : 2 022 Kbps\nWriting application              : VirtualDubMod 1.5.4.1 (build 2178/release)\nWriting library                  : VirtualDubMod build 2178/release\nSource                           : True.Grit.2010.720p.BluRay.x264-Felony\n\nVideo\nID                               : 0\nFormat                           : MPEG-4 Visual\nFormat profile                   : Simple@L3\nFormat settings, BVOP            : No\nFormat settings, QPel            : No\nFormat settings, GMC             : No warppoints\nFormat settings, Matrix          : Default (H.263)\nCodec ID                         : XVID\nCodec ID/Hint                    : XviD\nDuration                         : 1h 50mn\nBit rate                         : 1 565 Kbps\nWidth                            : 720 pixels\nHeight                           : 304 pixels\nDisplay aspect ratio             : 2.35:1\nFrame rate                       : 23.976 fps\nResolution                       : 8 bits\nColorimetry                      : 4:2:0\nScan type                        : Progressive\nBits/(Pixel*Frame)               : 0.298\nStream size                      : 1.21 GiB (77%)\nWriting library                  : XviD 1.1.2 (UTC 2006-11-01)\n\nAudio\nID                               : 1\nFormat                           : AC-3\nFormat/Info                      : Audio Coding 3\nCodec ID                         : 2000\nDuration                         : 1h 50mn\nBit rate mode                    : Constant\nBit rate                         : 448 Kbps\nChannel(s)                       : 6 channels\nChannel positions                : Front: L C R, Surround: L R, LFE\nSampling rate                    : 48.0 KHz\nStream size                      : 354 MiB (22%)\nAlignment                        : Split accross interleaves\nInterleave, duration             : 42 ms (1.00 video frame)\nInterleave, preload duration     : 500 ms\n\nEnjoy....\n\nTBS. \n\nThanks to Simply ReleaseS Toppers.","torrent":{"xt":"urn:btih:4352a4db86ef3cac4bb8a9731a0f4ed465d8a295","amp;dn":"True+Grit-AC3-XviD-BRRip+2010+TBS","amp;tr":["udp%3A%2F%2Ftracker.openbittorrent.com%3A80","udp%3A%2F%2Fopen.demonii.com%3A1337","udp%3A%2F%2Ftracker.coppersurfer.tk%3A6969","udp%3A%2F%2Fexodus.desync.com%3A6969"],"infoHash":"4352a4db86ef3cac4bb8a9731a0f4ed465d8a295","infoHashBuffer":{"type":"Buffer","data":[67,82,164,219,134,239,60,172,75,184,169,115,26,15,78,212,101,216,162,149]},"announce":[],"urlList":[]}}